<svg width="149" height="127" viewBox="0 0 149 127" fill="none" xmlns="http://www.w3.org/2000/svg">
<g opacity="0.4">
<path d="M101.6 46.2001C100.2 46.2001 98.8 45.4001 98.1 44.1001C97.1 42.2001 97.9 39.8001 99.8 38.9001L115.5 30.9001C117.4 29.9001 119.8 30.7001 120.7 32.6001C121.7 34.5001 120.9 36.9001 119 37.8001L103.3 45.8001C102.8 46.1001 102.2 46.2001 101.6 46.2001Z" fill="#7683A1"/>
<path d="M84 43.7001C83 43.7001 82.1 43.3001 81.3 42.6001L63.2 25.3001C61.6 23.8001 61.6 21.4001 63.1 19.8001C64.6 18.2001 67 18.2001 68.6 19.7001L86.7 37.0001C88.3 38.5001 88.3 40.9001 86.8 42.5001C86.1 43.3001 85 43.7001 84 43.7001Z" fill="#7683A1"/>
<path d="M29.2 46.9C28.2 46.9 27.2 46.5 26.5 45.8C25 44.3 24.9 41.8 26.4 40.3L46.9 19.4C48.4 17.9 50.9 17.8 52.4 19.3C53.9 20.8 54 23.3 52.5 24.8L32 45.7C31.2 46.5 30.2 46.9 29.2 46.9Z" fill="#7683A1"/>
<path d="M21.7 64.9001C13.7 64.9001 7.30002 58.4001 7.30002 50.5001C7.30002 42.5001 13.8 36.1001 21.7 36.1001C29.7 36.1001 36.1 42.6001 36.1 50.5001C36.1 58.4001 29.6 64.9001 21.7 64.9001ZM21.7 43.8001C18 43.8001 15.1 46.8001 15.1 50.4001C15.1 54.1001 18.1 57.0001 21.7 57.0001C25.4 57.0001 28.3 54.0001 28.3 50.4001C28.3 46.8001 25.4 43.8001 21.7 43.8001Z" fill="#0E93F0"/>
<path d="M57.5 29.6C49.5 29.6 43.1 23.1 43.1 15.2C43.1 7.20005 49.6 0.800049 57.5 0.800049C65.5 0.800049 71.9 7.30005 71.9 15.2C71.9 23.1 65.5 29.6 57.5 29.6ZM57.5 8.50005C53.8 8.50005 50.9 11.5 50.9 15.1C50.9 18.8 53.9 21.7001 57.5 21.7001C61.2 21.7001 64.1 18.7 64.1 15.1C64.2 11.5 61.2 8.50005 57.5 8.50005Z" fill="#0E93F0"/>
<path d="M92 61.1C84 61.1 77.6 54.6 77.6 46.7001C77.6 38.7001 84.1 32.3 92 32.3C99.9 32.3 106.4 38.8001 106.4 46.7001C106.4 54.6 100 61.1 92 61.1ZM92 40C88.3 40 85.4 43 85.4 46.6C85.4 50.3 88.4 53.2001 92 53.2001C95.7 53.2001 98.6 50.2 98.6 46.6C98.7 43 95.7 40 92 40Z" fill="#0E93F0"/>
<path d="M126.7 43.8C118.7 43.8 112.3 37.3 112.3 29.4C112.3 21.4 118.8 15 126.7 15C134.7 15 141.1 21.5 141.1 29.4C141.1 37.4 134.6 43.8 126.7 43.8ZM126.7 22.8C123 22.8 120.1 25.8 120.1 29.4C120.1 33.1 123.1 36 126.7 36C130.4 36 133.3 33 133.3 29.4C133.3 25.8 130.3 22.8 126.7 22.8Z" fill="#0E93F0"/>
<path d="M31.2 86.4V123.6H12.3V86.4C12.3 85.4 13.1 84.7 14 84.7H29.4C30.5 84.7 31.2 85.4 31.2 86.4Z" fill="#7683A1"/>
<path d="M66.2 51.4001V123.6H47.3V51.4001C47.3 50.2001 48.3 49.1001 49.6 49.1001H64C65.2 49.2001 66.2 50.2001 66.2 51.4001Z" fill="#7683A1"/>
<path d="M101.2 80.4001V123.6H82.3V80.4001C82.3 79.4001 83.1 78.6001 84.1 78.6001H99.3C100.4 78.6001 101.2 79.4001 101.2 80.4001Z" fill="#7683A1"/>
<path d="M136.2 66.3V123.6H117.3V66.3C117.3 65.2 118.2 64.3 119.3 64.3H134.1C135.3 64.3 136.2 65.2 136.2 66.3Z" fill="#7683A1"/>
<path d="M145.4 127H3.50001C1.60001 127 0.100006 125.5 0.100006 123.6C0.100006 121.7 1.60001 120.2 3.50001 120.2H145.4C147.3 120.2 148.8 121.7 148.8 123.6C148.8 125.5 147.3 127 145.4 127Z" fill="#7683A1"/>
</g>
</svg>
