<svg width="186" height="110" viewBox="0 0 186 110" fill="none" xmlns="http://www.w3.org/2000/svg">
<g clip-path="url(#clip0)">
<path d="M53.5271 3.41085C50.7015 3.41085 48.4109 5.70149 48.4109 8.52713V82.2868C48.4109 85.1125 50.7015 87.4031 53.5271 87.4031H61.2015C62.1434 87.4031 62.907 88.1666 62.907 89.1085C62.907 90.0504 62.1434 90.8139 61.2015 90.8139H53.5271C48.8177 90.8139 45 86.9962 45 82.2868V8.52713C45 3.81772 48.8177 0 53.5271 0H81.6667C86.3761 0 90.1938 2.96501 90.1938 7.67442H86.7829C86.7829 4.84878 84.4923 3.41085 81.6667 3.41085H53.5271Z" fill="#E2E8F0"/>
<path d="M65.4651 50.0465C65.4651 48.1609 65.4651 47.2181 66.0509 46.6323C66.6367 46.0465 67.5795 46.0465 69.4651 46.0465L116.039 46.0465C117.924 46.0465 118.867 46.0465 119.453 46.6323C120.039 47.2181 120.039 48.1609 120.039 50.0465V90.5891C120.039 98.1316 120.039 101.903 117.696 104.246C115.352 106.589 111.581 106.589 104.039 106.589H81.4651C73.9227 106.589 70.1514 106.589 67.8083 104.246C65.4651 101.903 65.4651 98.1316 65.4651 90.5891L65.4651 50.0465Z" fill="#10B981"/>
<path d="M82.3631 75.0292C81.6164 75.0292 80.9391 74.8959 80.3311 74.6292C79.7338 74.3519 79.2538 73.9679 78.8911 73.4772C78.5391 72.9866 78.3631 72.4106 78.3631 71.7492C78.3631 71.0772 78.5498 70.4746 78.9231 69.9412C79.3071 69.4079 79.8138 69.0452 80.4431 68.8532C79.8778 68.6292 79.4404 68.3039 79.1311 67.8772C78.8218 67.4399 78.6671 66.9599 78.6671 66.4372C78.6671 65.8932 78.8111 65.3972 79.0991 64.9492C79.3871 64.4906 79.8031 64.1279 80.3471 63.8612C80.9018 63.5839 81.5738 63.4452 82.3631 63.4452C83.1524 63.4452 83.8191 63.5839 84.3631 63.8612C84.9178 64.1279 85.3391 64.4906 85.6271 64.9492C85.9151 65.3972 86.0591 65.8932 86.0591 66.4372C86.0591 66.9492 85.8991 67.4292 85.5791 67.8772C85.2698 68.3146 84.8324 68.6399 84.2671 68.8532C84.8964 69.0559 85.3978 69.4239 85.7711 69.9572C86.1551 70.4799 86.3471 71.0772 86.3471 71.7492C86.3471 72.4106 86.1711 72.9866 85.8191 73.4772C85.4671 73.9679 84.9871 74.3519 84.3791 74.6292C83.7818 74.8959 83.1098 75.0292 82.3631 75.0292ZM82.3631 68.3092C82.9818 68.3092 83.4671 68.1492 83.8191 67.8292C84.1818 67.5092 84.3631 67.0986 84.3631 66.5972C84.3631 66.0319 84.1871 65.5999 83.8351 65.3012C83.4831 65.0026 82.9924 64.8532 82.3631 64.8532C81.7338 64.8532 81.2431 65.0026 80.8911 65.3012C80.5391 65.5999 80.3631 66.0319 80.3631 66.5972C80.3631 67.0986 80.5391 67.5092 80.8911 67.8292C81.2431 68.1492 81.7338 68.3092 82.3631 68.3092ZM82.3631 73.5892C83.1311 73.5892 83.7071 73.4079 84.0911 73.0452C84.4751 72.6719 84.6671 72.1972 84.6671 71.6212C84.6671 70.9812 84.4591 70.4906 84.0431 70.1492C83.6378 69.7972 83.0778 69.6212 82.3631 69.6212C81.6484 69.6212 81.0831 69.7972 80.6671 70.1492C80.2511 70.4906 80.0431 70.9812 80.0431 71.6212C80.0431 72.1972 80.2351 72.6719 80.6191 73.0452C81.0138 73.4079 81.5951 73.5892 82.3631 73.5892ZM92.941 75.0292C91.9276 75.0292 91.053 74.7892 90.317 74.3092C89.5916 73.8186 89.0316 73.1412 88.637 72.2772C88.253 71.4026 88.061 70.3892 88.061 69.2372C88.061 68.0852 88.253 67.0772 88.637 66.2132C89.0316 65.3386 89.5916 64.6612 90.317 64.1812C91.053 63.6906 91.9276 63.4452 92.941 63.4452C93.9543 63.4452 94.8236 63.6906 95.549 64.1812C96.2743 64.6612 96.829 65.3386 97.213 66.2132C97.6076 67.0772 97.805 68.0852 97.805 69.2372C97.805 70.3892 97.6076 71.4026 97.213 72.2772C96.829 73.1412 96.2743 73.8186 95.549 74.3092C94.8236 74.7892 93.9543 75.0292 92.941 75.0292ZM92.941 73.5092C93.549 73.5092 94.0876 73.3386 94.557 72.9972C95.037 72.6559 95.4103 72.1652 95.677 71.5252C95.9436 70.8852 96.077 70.1226 96.077 69.2372C96.077 68.3519 95.9436 67.5892 95.677 66.9492C95.4103 66.3092 95.037 65.8186 94.557 65.4772C94.0876 65.1359 93.549 64.9652 92.941 64.9652C92.3223 64.9652 91.7783 65.1359 91.309 65.4772C90.8396 65.8186 90.4716 66.3092 90.205 66.9492C89.9383 67.5892 89.805 68.3519 89.805 69.2372C89.805 70.1226 89.9383 70.8852 90.205 71.5252C90.4716 72.1652 90.8396 72.6559 91.309 72.9972C91.7783 73.3386 92.3223 73.5092 92.941 73.5092ZM101.855 68.9812C101.354 68.9812 100.901 68.8692 100.495 68.6452C100.101 68.4212 99.786 68.1066 99.5514 67.7012C99.3167 67.2852 99.1994 66.7892 99.1994 66.2132C99.1994 65.6479 99.3167 65.1626 99.5514 64.7572C99.786 64.3412 100.106 64.0212 100.511 63.7972C100.917 63.5732 101.37 63.4612 101.871 63.4612C102.362 63.4612 102.805 63.5732 103.199 63.7972C103.605 64.0212 103.925 64.3412 104.159 64.7572C104.394 65.1626 104.511 65.6479 104.511 66.2132C104.511 66.7892 104.394 67.2852 104.159 67.7012C103.925 68.1066 103.605 68.4212 103.199 68.6452C102.805 68.8692 102.357 68.9812 101.855 68.9812ZM101.055 74.8372L107.471 63.6372H109.135L102.735 74.8372H101.055ZM101.855 67.7652C102.197 67.7652 102.49 67.6372 102.735 67.3812C102.991 67.1146 103.119 66.7252 103.119 66.2132C103.119 65.7012 102.997 65.3172 102.751 65.0612C102.506 64.7946 102.207 64.6612 101.855 64.6612C101.514 64.6612 101.215 64.7946 100.959 65.0612C100.703 65.3172 100.575 65.7012 100.575 66.2132C100.575 66.7252 100.698 67.1146 100.943 67.3812C101.199 67.6372 101.503 67.7652 101.855 67.7652ZM108.431 75.0292C107.93 75.0292 107.477 74.9172 107.071 74.6932C106.677 74.4692 106.362 74.1546 106.127 73.7492C105.893 73.3332 105.775 72.8372 105.775 72.2612C105.775 71.6959 105.893 71.2052 106.127 70.7892C106.362 70.3732 106.682 70.0532 107.087 69.8292C107.493 69.6052 107.946 69.4932 108.447 69.4932C108.938 69.4932 109.381 69.6052 109.775 69.8292C110.181 70.0532 110.501 70.3732 110.735 70.7892C110.97 71.2052 111.087 71.6959 111.087 72.2612C111.087 72.8372 110.97 73.3332 110.735 73.7492C110.501 74.1546 110.181 74.4692 109.775 74.6932C109.381 74.9172 108.933 75.0292 108.431 75.0292ZM108.431 73.7972C108.773 73.7972 109.066 73.6692 109.311 73.4132C109.567 73.1572 109.695 72.7732 109.695 72.2612C109.695 71.7492 109.573 71.3652 109.327 71.1092C109.082 70.8426 108.783 70.7092 108.431 70.7092C108.09 70.7092 107.791 70.8426 107.535 71.1092C107.279 71.3652 107.151 71.7492 107.151 72.2612C107.151 72.7732 107.274 73.1572 107.519 73.4132C107.775 73.6692 108.079 73.7972 108.431 73.7972Z" fill="white"/>
<path d="M62.5543 41.3179C62.5543 36.5897 62.5553 33.0938 62.9159 30.4117C63.2746 27.7441 63.9807 25.9564 65.3367 24.6003C66.6928 23.2442 68.4805 22.5382 71.1482 22.1795C73.8302 21.8189 77.3261 21.8178 82.0543 21.8178L103.45 21.8178C108.178 21.8178 111.674 21.8189 114.356 22.1795C117.023 22.5382 118.811 23.2442 120.167 24.6003C121.523 25.9564 122.229 27.7441 122.588 30.4117C122.949 33.0938 122.95 36.5897 122.95 41.3178L122.95 90C122.95 94.7282 122.949 98.224 122.588 100.906C122.229 103.574 121.523 105.361 120.167 106.718C118.811 108.074 117.023 108.78 114.356 109.138C111.674 109.499 108.178 109.5 103.45 109.5H82.0542C77.3261 109.5 73.8302 109.499 71.1482 109.138C68.4805 108.78 66.6928 108.074 65.3367 106.718C63.9807 105.361 63.2746 103.574 62.9159 100.906C62.5553 98.224 62.5543 94.7282 62.5543 90L62.5543 41.3179Z" stroke="#E2E8F0"/>
<path d="M73.9922 13.6744C73.9922 10.3607 76.6785 7.67441 79.9922 7.67441L105.512 7.67441C108.825 7.67441 111.512 10.3607 111.512 13.6744V15.907C111.512 17.0115 110.616 17.907 109.512 17.907L75.9922 17.907C74.8877 17.907 73.9922 17.0115 73.9922 15.907V13.6744Z" fill="#E2E8F0"/>
<path d="M76.5504 17.907L108.953 17.907V22.1705L76.5504 22.1705V17.907Z" fill="#D1D5DB"/>
<path d="M132.829 106.589C132.829 106.736 132.848 106.879 132.883 107.015H127.287C126.345 107.015 125.581 107.779 125.581 108.721C125.581 109.663 126.345 110.426 127.287 110.426H141.783C142.725 110.426 143.488 109.663 143.488 108.721C143.488 107.779 142.725 107.015 141.783 107.015H136.187C136.222 106.879 136.24 106.736 136.24 106.589L136.24 45.1938C136.24 40.4844 132.423 36.6667 127.713 36.6667H122.597V40.0775L127.713 40.0775C130.539 40.0775 132.829 42.3681 132.829 45.1938L132.829 106.589Z" fill="#E2E8F0"/>
<rect x="127.713" y="55.4264" width="13.6434" height="29.845" rx="4" fill="#E2E8F0"/>
<ellipse cx="134.535" cy="61.3954" rx="2.55814" ry="2.55814" fill="#04A696"/>
<ellipse cx="134.535" cy="69.9225" rx="2.55814" ry="2.55814" fill="#FED47E"/>
<ellipse cx="134.535" cy="78.4496" rx="2.55814" ry="2.55814" fill="#D33C3C"/>
<rect x="79.1085" y="7.67441" width="1.70543" height="10.2326" fill="#D1D5DB"/>
<rect x="84.2248" y="7.67441" width="1.70543" height="10.2326" fill="#D1D5DB"/>
<rect x="89.3411" y="7.67441" width="1.70543" height="10.2326" fill="#D1D5DB"/>
<rect x="94.4574" y="7.67441" width="1.70543" height="10.2326" fill="#D1D5DB"/>
<rect x="99.5736" y="7.67441" width="1.70543" height="10.2326" fill="#D1D5DB"/>
<rect x="104.69" y="7.67441" width="1.70543" height="10.2326" fill="#D1D5DB"/>
<path fill-rule="evenodd" clip-rule="evenodd" d="M10 90.25C5.25 90.25 1.25 94.25 1.25 99C1.25 103.75 5.25 107.75 10 107.75C14.75 107.75 18.75 103.875 18.75 99C18.75 94.125 14.875 90.25 10 90.25ZM9.375 94H10.625V100.25H9.375V94ZM10 104.25C9.5 104.25 9 103.75 9 103.25C9 102.75 9.375 102.25 10 102.25C10.5 102.25 11 102.75 11 103.25C11 103.75 10.5 104.25 10 104.25Z" fill="#9CA3AF"/>
<path opacity="0.01" fill-rule="evenodd" clip-rule="evenodd" d="M9.375 94H10.625V100.25H9.375V94ZM10 104.25C9.5 104.25 9 103.75 9 103.25C9 102.75 9.375 102.25 10 102.25C10.5 102.25 11 102.75 11 103.25C11 103.75 10.5 104.25 10 104.25Z" fill="#9CA3AF"/>
<path fill-rule="evenodd" clip-rule="evenodd" d="M31.5 95.25H28.2375C29.8976 92.6987 33.0377 91.5427 35.9558 92.4086C38.8738 93.2745 40.8752 95.9562 40.875 99H42.125C42.1285 95.5753 39.9843 92.5161 36.7638 91.3512C33.5434 90.1862 29.9383 91.1656 27.75 93.8V91.5H26.5V96.5H31.5V95.25ZM36.5 102.75H39.7625C38.1024 105.301 34.9623 106.457 32.0442 105.591C29.1261 104.725 27.1248 102.044 27.125 99H25.875C25.8715 102.425 28.0157 105.484 31.2361 106.649C34.4566 107.814 38.0617 106.834 40.25 104.2V106.5H41.5V101.5H36.5V102.75Z" fill="#04A696"/>
</g>
<defs>
<clipPath id="clip0">
<rect width="186" height="110" fill="white"/>
</clipPath>
</defs>
</svg>
