<svg width="66" height="127" viewBox="0 0 66 127" fill="none" xmlns="http://www.w3.org/2000/svg">
<g clip-path="url(#clip0)">
<path d="M64.0166 16.7882L64.0154 16.8097L64.0152 16.8312L63.4878 72.0141L63.4878 72.0145L63.45 76.1589V76.168V76.5071C63.45 76.8564 63.1359 77.4524 61.6538 78.1687C58.9869 79.4484 53.9581 80.358 47.7418 80.8603L47.7375 80.8607C47.1604 80.9098 46.5689 80.9468 45.9641 80.9846L45.9607 80.9848C35.9234 81.6465 23.6423 81.3086 14.3531 80.1365L14.3519 80.1364C13.2568 79.9995 12.2009 79.8504 11.1964 79.6892L11.1963 79.6892C7.9304 79.1656 5.24945 78.5322 3.40769 77.814C2.48213 77.4531 1.82953 77.0937 1.4254 76.7591C1.01674 76.4208 0.986328 76.2174 0.986328 76.1554V17.2427C0.986328 15.8087 1.6568 14.4618 2.7955 13.6103L2.79821 13.6083C5.77609 11.3658 12.1498 7.62042 22.7941 6.11377C23.7567 5.97875 24.5856 5.36375 24.9926 4.49149L24.9927 4.4915L24.9959 4.48436L25.5957 3.17226C25.5962 3.1713 25.5966 3.17033 25.5971 3.16937C25.9743 2.36204 26.7174 1.79357 27.5897 1.63717C30.5803 1.10806 36.6333 0.414199 42.9399 1.85349C43.7369 2.037 44.4122 2.57805 44.7569 3.31281L44.7569 3.31282L44.7607 3.32065L45.803 5.49331L45.8056 5.49871C46.1703 6.24715 46.8436 6.80723 47.6569 7.02025L47.6578 7.02049C49.3742 7.46823 53.4638 8.61879 57.1571 10.3134C59.0073 11.1623 60.7074 12.1251 61.954 13.1714C63.2203 14.2343 63.8718 15.258 63.9426 16.2115L63.9437 16.2269L63.9453 16.2422C63.957 16.3528 63.9787 16.4875 63.9925 16.5729C63.9968 16.5995 64.0003 16.6214 64.0025 16.6362C64.0166 16.7312 64.0176 16.7693 64.0166 16.7882Z" stroke="#E2E8F0" stroke-width="2"/>
<path d="M60.5362 68.7012L60.9615 45.5835C60.9819 44.4725 60.0928 43.5579 58.9817 43.5468L6.01989 43.0201C4.9076 43.009 4 43.9076 4 45.02V72.0315C4 73.5904 7.91879 74.8254 13.6869 75.6757C14.5785 75.8073 15.5142 75.9287 16.4829 76.0401C24.6837 76.9916 35.5044 77.2649 44.3547 76.7284C44.8831 76.6981 45.4115 76.6677 45.9288 76.6272C51.3777 76.2223 55.935 75.4834 58.4337 74.38C59.7547 73.7929 60.5032 73.1147 60.5032 72.315V72.0416L60.5362 68.7012Z" fill="#14B8A6"/>
<path d="M21.46 58V56.04H16.546V54.864L21.222 48.2H22.93V54.752H24.302V56.04H22.93V58H21.46ZM18.156 54.752H21.544V49.838L18.156 54.752ZM26.7247 58V49.88L25.1427 50.244V49.152L27.3127 48.2H28.2647V58H26.7247ZM30.7877 58.084C30.5077 58.084 30.2744 57.9953 30.0877 57.818C29.9104 57.6313 29.8217 57.412 29.8217 57.16C29.8217 56.8987 29.9104 56.6793 30.0877 56.502C30.2744 56.3153 30.5077 56.222 30.7877 56.222C31.0677 56.222 31.2964 56.3153 31.4737 56.502C31.6511 56.6793 31.7397 56.8987 31.7397 57.16C31.7397 57.412 31.6511 57.6313 31.4737 57.818C31.2964 57.9953 31.0677 58.084 30.7877 58.084ZM36.7069 58.168C36.0162 58.168 35.4189 58.0467 34.9149 57.804C34.4109 57.552 34.0095 57.2113 33.7109 56.782C33.4215 56.3433 33.2442 55.8487 33.1789 55.298H34.6349C34.7282 55.7647 34.9615 56.152 35.3349 56.46C35.7082 56.7587 36.1702 56.908 36.7209 56.908C37.1315 56.908 37.4862 56.81 37.7849 56.614C38.0835 56.4087 38.3169 56.138 38.4849 55.802C38.6529 55.466 38.7369 55.088 38.7369 54.668C38.7369 54.0053 38.5502 53.478 38.1769 53.086C37.8035 52.6847 37.3322 52.484 36.7629 52.484C36.2775 52.484 35.8622 52.6007 35.5169 52.834C35.1715 53.058 34.9195 53.3427 34.7609 53.688H33.3469L34.1869 48.2H39.4789V49.502H35.3069L34.8029 52.12C35.0175 51.8773 35.3115 51.6767 35.6849 51.518C36.0675 51.35 36.4969 51.266 36.9729 51.266C37.6355 51.266 38.2049 51.42 38.6809 51.728C39.1569 52.0267 39.5209 52.4327 39.7729 52.946C40.0342 53.4593 40.1649 54.0287 40.1649 54.654C40.1649 55.3073 40.0249 55.9 39.7449 56.432C39.4649 56.964 39.0635 57.3887 38.5409 57.706C38.0275 58.014 37.4162 58.168 36.7069 58.168ZM43.8078 52.876C43.3692 52.876 42.9725 52.778 42.6178 52.582C42.2725 52.386 41.9972 52.1107 41.7918 51.756C41.5865 51.392 41.4838 50.958 41.4838 50.454C41.4838 49.9593 41.5865 49.5347 41.7918 49.18C41.9972 48.816 42.2772 48.536 42.6318 48.34C42.9865 48.144 43.3832 48.046 43.8218 48.046C44.2512 48.046 44.6385 48.144 44.9838 48.34C45.3385 48.536 45.6185 48.816 45.8238 49.18C46.0292 49.5347 46.1318 49.9593 46.1318 50.454C46.1318 50.958 46.0292 51.392 45.8238 51.756C45.6185 52.1107 45.3385 52.386 44.9838 52.582C44.6385 52.778 44.2465 52.876 43.8078 52.876ZM43.1078 58L48.7218 48.2H50.1778L44.5778 58H43.1078ZM43.8078 51.812C44.1065 51.812 44.3632 51.7 44.5778 51.476C44.8018 51.2427 44.9138 50.902 44.9138 50.454C44.9138 50.006 44.8065 49.67 44.5918 49.446C44.3772 49.2127 44.1158 49.096 43.8078 49.096C43.5092 49.096 43.2478 49.2127 43.0238 49.446C42.7998 49.67 42.6878 50.006 42.6878 50.454C42.6878 50.902 42.7952 51.2427 43.0098 51.476C43.2338 51.7 43.4998 51.812 43.8078 51.812ZM49.5618 58.168C49.1232 58.168 48.7265 58.07 48.3718 57.874C48.0265 57.678 47.7512 57.4027 47.5458 57.048C47.3405 56.684 47.2378 56.25 47.2378 55.746C47.2378 55.2513 47.3405 54.822 47.5458 54.458C47.7512 54.094 48.0312 53.814 48.3858 53.618C48.7405 53.422 49.1372 53.324 49.5758 53.324C50.0052 53.324 50.3925 53.422 50.7378 53.618C51.0925 53.814 51.3725 54.094 51.5778 54.458C51.7832 54.822 51.8858 55.2513 51.8858 55.746C51.8858 56.25 51.7832 56.684 51.5778 57.048C51.3725 57.4027 51.0925 57.678 50.7378 57.874C50.3925 58.07 50.0005 58.168 49.5618 58.168ZM49.5618 57.09C49.8605 57.09 50.1172 56.978 50.3318 56.754C50.5558 56.53 50.6678 56.194 50.6678 55.746C50.6678 55.298 50.5605 54.962 50.3458 54.738C50.1312 54.5047 49.8698 54.388 49.5618 54.388C49.2632 54.388 49.0018 54.5047 48.7778 54.738C48.5538 54.962 48.4418 55.298 48.4418 55.746C48.4418 56.194 48.5492 56.53 48.7638 56.754C48.9878 56.978 49.2538 57.09 49.5618 57.09Z" fill="white"/>
<path d="M15.0527 84.1011C16.07 84.2643 17.1375 84.415 18.2426 84.5532V127.742H15.0527V84.1011Z" fill="#E2E8F0"/>
<path d="M61 84.5729V126H58V85.0789C58 84.8308 58.189 84.6126 58.4724 84.5332C58.9921 84.3943 59.5945 84.1958 60.0787 84.037C60.5276 83.8981 61 84.166 61 84.5729Z" fill="#E2E8F0"/>
<path d="M3.09511 82.6582H0.796875V112.5H3.09511V82.6582Z" fill="#E2E8F0"/>
<path d="M46.0282 84.4071C46.631 84.3695 47.2338 84.3192 47.8241 84.2816V109.788H46.0156V107.942V99.8669L46.0282 84.4071Z" fill="#E2E8F0"/>
<path d="M64.5391 78.5798V79.5217C64.5391 81.619 63.66 83.6283 62.1152 85.0475L62.0901 85.0726L47.836 98.1964L46.0276 99.8542L41.7702 103.772C41.5064 104.011 41.2301 104.237 40.9539 104.451C39.1956 105.757 37.0607 106.473 34.8503 106.473H30.3418C29.8143 106.473 29.2868 106.435 28.7719 106.347C28.257 106.272 27.7421 106.146 27.2523 105.995C25.8834 105.556 24.6025 104.84 23.5224 103.86L21.2242 101.801L20.4958 101.148L14.2415 95.5717L11.0516 92.7083L7.10821 89.1793L4.80997 87.1197L2.51174 85.06C0.904225 83.6283 0 81.5938 0 79.4589V78.5923C0 80.5264 4.47089 82.0585 11.0516 83.1134C12.0689 83.2767 13.1364 83.4274 14.2415 83.5656C23.5978 84.7461 35.9304 85.0852 46.0276 84.4195C46.6304 84.3819 47.2332 84.3316 47.8235 84.294C54.04 83.7916 59.2393 82.8748 62.0901 81.5059C63.5972 80.7775 64.4511 79.9361 64.4511 78.944V78.6049H64.5391V78.5798Z" fill="#E2E8F0"/>
<path d="M3.10767 112.443L14.241 126.742H11.0511L0.796875 112.443L21.0101 100.733L21.7762 101.336L3.10767 112.443Z" fill="#E2E8F0"/>
<path d="M41.7693 103.772L65.2792 126.742H62.0893L40.3125 103.785L41.7693 103.772Z" fill="#E2E8F0"/>
<path d="M2 112.5L45.4881 108.595L47.8366 109.788L2.82887 114.17L2 112.5Z" fill="#E2E8F0"/>
<path d="M11.5928 125.147L27.9818 105.091L29.0996 105.882L14.2426 126.742H11.0527L11.5928 125.147Z" fill="#E2E8F0"/>
<path d="M11.5928 125.147L14.2929 123.427L62.1917 124.029L65.2811 126.742H11.0527L11.5928 125.147Z" fill="#E2E8F0"/>
</g>
<defs>
<clipPath id="clip0">
<rect width="65.28" height="126.742" fill="white"/>
</clipPath>
</defs>
</svg>
