<svg width="32" height="32" viewBox="0 0 32 32" fill="none" xmlns="http://www.w3.org/2000/svg">
<path d="M9.12104 21.8037C11.1527 20.6554 13.4998 20 16 20C18.5002 20 20.8473 20.6554 22.879 21.8037M19 14C19 15.6569 17.6569 17 16 17C14.3431 17 13 15.6569 13 14C13 12.3431 14.3431 11 16 11C17.6569 11 19 12.3431 19 14ZM25 16C25 20.9706 20.9706 25 16 25C11.0294 25 7 20.9706 7 16C7 11.0294 11.0294 7 16 7C20.9706 7 25 11.0294 25 16Z" stroke="#9CA3AF" stroke-width="2" stroke-linecap="round" stroke-linejoin="round"/>
<rect x="19" y="19" width="8" height="8" rx="4" fill="#10B981"/>
</svg>
