<svg width="40" height="37" viewBox="0 0 40 37" fill="none" xmlns="http://www.w3.org/2000/svg">
<path d="M32.0331 1.38798V3.88969H31.8886V1.38798H31.2744V1.22394H32.6473V1.38798H32.0331Z" fill="#38BDF8"/>
<path d="M32.8999 3.89066L33.1528 1.14288L34.1644 3.60358L35.176 1.14288L35.4289 3.89066H35.2844L35.1037 1.75806L34.2005 3.97268L33.2973 1.75806L33.0805 3.89066H32.8999Z" fill="#38BDF8"/>
<path d="M26.9388 1.553C26.8304 1.553 26.7581 1.59401 26.6498 1.59401C26.5414 1.59401 26.4691 1.63502 26.3969 1.63502C26.2162 1.67603 26.0717 1.67603 25.8911 1.71705C25.7104 1.75806 25.5659 1.79907 25.3853 1.84008C25.2046 1.88109 25.0601 1.9221 24.8795 1.96312C24.5543 2.04514 24.2291 2.12716 23.904 2.20919L23.3982 2.33222C23.2176 2.37323 23.073 2.41424 22.9285 2.49627C22.6034 2.57829 22.2782 2.70132 21.9531 2.78335C21.6279 2.90638 21.3027 2.98841 20.9776 3.11144L20.0382 3.43953L19.0989 3.80864C18.9544 3.84965 18.7738 3.93167 18.6292 4.0137L18.1596 4.21876C17.8344 4.34179 17.5454 4.50584 17.2202 4.62887L16.317 5.03899C16.028 5.20303 15.7028 5.36708 15.4138 5.49012L14.9441 5.73619L14.7274 5.85922L14.5106 5.98225L13.6074 6.47439C13.4629 6.55642 13.3184 6.63844 13.1738 6.72046L12.7403 6.96653L11.8732 7.49968L11.7648 7.58171L11.6926 7.62272L11.6203 7.66373L11.4035 7.82778L10.97 8.11486C10.8255 8.23789 10.681 8.31992 10.5365 8.44295C10.392 8.56599 10.2474 8.64801 10.1029 8.77105C9.81389 9.01712 9.561 9.22217 9.27197 9.46824L8.87455 9.83735L8.51327 10.2475L8.33263 10.4525L8.15198 10.6576L7.7907 11.0677C7.57393 11.3548 7.32103 11.6419 7.10426 11.9289C6.67072 12.5031 6.27331 13.1593 5.91203 13.7745C5.73138 14.1026 5.55073 14.4306 5.40622 14.7587L5.18946 15.2509C5.1172 15.4149 5.04494 15.579 4.97268 15.784C4.68366 16.4812 4.46689 17.1784 4.25012 17.9166C4.06947 18.6548 3.92496 19.352 3.81657 20.0903C3.70818 20.8285 3.63593 21.5667 3.67206 22.3049C3.78044 21.5667 3.92495 20.8695 4.14172 20.1723C4.35849 19.4751 4.57527 18.8189 4.86429 18.1627C5.11719 17.5065 5.44235 16.8913 5.7675 16.2762C6.09266 15.661 6.45395 15.0868 6.85136 14.5537C7.24877 14.0205 7.68231 13.4874 8.11585 12.9952C8.33262 12.7492 8.58553 12.5031 8.8023 12.298L9.16359 11.97L9.34423 11.8059L9.52487 11.6419L9.88616 11.3138L10.2836 11.0267C10.5365 10.8216 10.7894 10.6576 11.0784 10.4525C11.2229 10.3705 11.3313 10.2885 11.4758 10.2065C11.6203 10.1244 11.7287 10.0424 11.8732 9.96038L12.3068 9.71431L12.5235 9.59128L12.5597 9.55027H12.5958L12.7042 9.50925L13.6074 9.05813L14.0409 8.85307C14.1854 8.77104 14.33 8.73003 14.4745 8.64801L15.3415 8.23789L15.5583 8.15587L15.7751 8.07385L16.2086 7.86879C16.4977 7.74575 16.7867 7.62272 17.1118 7.49968L18.0151 7.13058C18.3041 7.00755 18.6292 6.92552 18.9183 6.80249C19.2073 6.67945 19.5325 6.59743 19.8215 6.47439L20.7247 6.18731L21.6279 5.90023C21.9169 5.81821 22.2421 5.73619 22.5311 5.65416C22.8201 5.57214 23.1453 5.49012 23.4704 5.40809C23.7956 5.32607 24.0846 5.28506 24.4098 5.20303C24.4459 5.20303 24.4459 5.20303 24.482 5.20303C24.3375 5.65416 24.2292 6.10529 24.1208 6.55642C24.0846 6.67945 24.0846 6.8435 24.0485 6.96653L24.0124 7.17159C24.0124 7.2126 24.0124 7.25361 24.0124 7.29463V7.37665L23.9401 8.07385C23.8317 8.9761 23.7234 9.87836 23.615 10.7396C23.5066 11.6008 23.3621 12.5031 23.2176 13.3643C23.073 14.2256 22.8924 15.0868 22.7118 15.9071C22.5311 16.7273 22.2782 17.5475 22.0253 18.2447C21.9531 18.4088 21.8808 18.6138 21.8085 18.7779C21.7724 18.8599 21.7363 18.9419 21.7002 19.024L21.5918 19.27C21.5556 19.352 21.5195 19.4341 21.4834 19.4751C21.4473 19.5571 21.4111 19.6391 21.375 19.6801L21.2666 19.8852C21.2305 19.9262 21.1944 19.9672 21.1582 20.0492L21.1221 20.0903C21.1221 20.0903 21.086 20.0903 21.086 20.1313L21.0137 20.1723C20.9776 20.1723 20.9776 20.2133 20.9415 20.2133C20.9053 20.2133 20.9053 20.2543 20.9053 20.2543L20.8692 20.2953C20.8692 20.2953 20.8331 20.2953 20.8331 20.3363C20.8331 20.3363 20.7969 20.3363 20.7969 20.3773C20.8331 20.3773 20.7608 20.3773 20.7608 20.3773L20.6886 20.4183L19.6047 20.9925L19.0628 21.2796L18.5209 21.6077L17.437 22.2229L16.3531 22.838L15.2693 23.4532L13.1377 24.7246C12.4151 25.1347 11.6926 25.5858 11.0061 25.9959L8.87455 27.3083C8.15198 27.7594 7.46555 28.1695 6.74298 28.6207L5.1172 29.6049C5.15333 29.5229 5.15333 29.4409 5.18946 29.3589L5.40622 28.4566C5.47848 28.1695 5.55074 27.8825 5.65912 27.5544C5.73138 27.2673 5.83977 26.9802 5.91203 26.6931C6.02041 26.406 6.09266 26.119 6.20105 25.8319L6.49007 24.9706L6.77911 24.1094C6.99588 23.5352 7.21264 22.9611 7.42942 22.4279C7.5378 22.1408 7.64619 21.8538 7.7907 21.6077C7.89909 21.3206 8.0436 21.0335 8.15198 20.7875C8.2965 20.5004 8.40489 20.2543 8.5494 19.9672L8.94682 19.147C9.09133 18.9009 9.23584 18.6138 9.38035 18.3678C9.52486 18.1217 9.66938 17.8346 9.8139 17.5885C10.1029 17.0554 10.4281 16.5633 10.7532 16.0711L11.259 15.3329L11.4035 15.1689L11.5481 15.0048L11.8371 14.6767L12.1261 14.3486C12.2345 14.2256 12.3068 14.1436 12.4151 14.0205L12.7042 13.6924C12.8126 13.5694 12.8848 13.4874 12.9932 13.3643L13.6074 12.7492C13.7158 12.6261 13.8242 12.5441 13.9325 12.4621L14.2577 12.175L14.5829 11.8879L14.908 11.6008L15.2332 11.3138C15.3415 11.2317 15.4499 11.1087 15.5583 11.0677L16.2809 10.5756C16.3531 10.5345 16.3893 10.4935 16.4615 10.4525L16.6422 10.3295L17.0035 10.1244L17.3647 9.91937C17.4731 9.83735 17.6176 9.79634 17.7622 9.71431L18.5209 9.3042L17.6899 9.55027C17.5454 9.59128 17.4009 9.63229 17.2925 9.6733L16.8951 9.83735L16.4977 10.0014L16.2809 10.0834C16.2086 10.1244 16.1364 10.1654 16.1002 10.1654C15.8473 10.2885 15.5583 10.4115 15.3054 10.5345C15.1609 10.5756 15.0525 10.6576 14.908 10.7396L14.5106 10.9447L14.1132 11.1497L13.7519 11.3958L13.3906 11.6419C13.2822 11.7239 13.1377 11.8059 13.0293 11.8879L12.3068 12.4621C12.1984 12.5441 12.09 12.6671 11.9455 12.7492L11.6203 13.0363C11.5119 13.1183 11.4036 13.2413 11.2952 13.3233L10.97 13.6514L10.6448 13.9795L10.5003 14.1436L10.3558 14.3076L9.74163 15.0048C9.34422 15.497 8.94682 15.9481 8.58553 16.4812C8.18812 16.9734 7.86296 17.5065 7.50168 18.0397L6.99588 18.8599C6.81524 19.147 6.67072 19.3931 6.5262 19.6801C6.38169 19.9672 6.20105 20.2133 6.05654 20.5004C5.91202 20.7875 5.76751 21.0745 5.62299 21.3616C5.33396 21.9358 5.08107 22.5099 4.79204 23.0841L4.39463 23.9453L4.03334 24.8476C3.92496 25.1347 3.81657 25.4628 3.67206 25.7499C3.56367 26.0369 3.45529 26.365 3.3469 26.6521C3.23852 26.9392 3.13014 27.2673 3.02175 27.5544C2.91337 27.8414 2.80497 28.1695 2.73272 28.4976C2.55207 29.1128 2.37143 29.728 2.19079 30.3842C2.11853 30.7123 2.01015 30.9993 1.9379 31.3274C1.90177 31.4915 1.86563 31.6555 1.8295 31.8196C1.79338 31.9836 1.75725 32.1477 1.72112 32.3527L1.14307 35.4286L3.70819 33.9932L8.0436 31.5735L12.379 29.1538C13.1016 28.7437 13.8242 28.3336 14.5467 27.9235L16.7144 26.6931L18.846 25.5038L19.8937 24.8886L20.4357 24.6015L20.9776 24.3144L22.0614 23.7403L22.1337 23.6993C22.1337 23.6993 22.0976 23.7403 22.1337 23.6993H22.1698L22.2421 23.6583L22.4589 23.5352C22.5311 23.4942 22.6034 23.4532 22.6756 23.4122L22.8563 23.2481L23.0369 23.0841C23.1092 23.0431 23.1453 22.9611 23.2176 22.9201L23.3982 22.756C23.4343 22.715 23.4704 22.715 23.4704 22.674L23.5427 22.592C23.6511 22.4689 23.7233 22.3459 23.8317 22.2229L24.0846 21.8538C24.1569 21.7307 24.2292 21.6077 24.3014 21.4846C24.3737 21.3616 24.4459 21.2386 24.5182 21.1155L24.6988 20.7464C24.7711 20.6234 24.8072 20.5004 24.8433 20.3773C24.9517 20.1313 25.024 19.8852 25.1324 19.6391C25.4936 18.6959 25.7465 17.7526 25.9633 16.8093C26.1801 15.8661 26.3607 14.9228 26.5052 13.9795C26.6498 13.0363 26.7581 12.093 26.8665 11.1907C26.9749 10.2475 27.0472 9.34521 27.1194 8.40194L27.1917 7.74575V7.66373V7.62272V7.49968C27.1917 7.41766 27.2278 7.33564 27.2278 7.25361C27.2639 6.88451 27.3723 6.51541 27.4807 6.1463C27.5891 5.7772 27.7336 5.40809 27.8781 5.03899C27.9504 4.87494 28.0226 4.66988 28.0949 4.50584C28.131 4.42381 28.1671 4.34179 28.2033 4.25977L28.2755 4.13673L28.3117 4.05471L29.8652 1.14288L26.9388 1.553Z" fill="#38BDF8"/>
</svg>
