<svg width="118" height="29" viewBox="0 0 118 29" fill="none" xmlns="http://www.w3.org/2000/svg">
<g clip-path="url(#clip0)">
<path d="M11.6741 10.2713V21.8964C11.6741 26.4179 9.45545 28.9998 5.76387 28.9998C2.70804 28.9998 0.144071 27.18 -0.00244141 23.8627H1.2089C1.41036 26.3593 3.25484 27.8834 5.76387 27.8834C10.4052 27.8834 10.5203 23.1273 10.5203 21.8937V20.1911C9.33772 21.8644 7.55079 22.5678 5.87898 22.5678C2.99583 22.5678 0.0838962 20.4256 0.0838962 16.2557C0.0838962 12.7919 2.33129 10.0022 6.02288 10.0022C7.9537 10.0022 9.5104 10.8841 10.5203 12.3496V10.266H11.6741V10.2713ZM1.29786 16.317C1.29786 19.1946 3.08478 21.4541 5.85282 21.4541C8.76475 21.4541 10.5805 19.136 10.5805 16.1997C10.5805 13.41 8.79353 11.1213 5.91038 11.1213C2.99845 11.1213 1.29786 13.5593 1.29786 16.317Z" fill="white"/>
<path d="M15.8262 10.2711H16.98V11.8272C17.4116 10.7987 18.3064 10.0073 19.5753 10.0073C19.8919 10.0073 20.3838 10.0659 20.8154 10.3004L20.2399 11.3582C20.1247 11.2703 19.8945 11.1237 19.3739 11.1237C17.0114 11.1237 16.9826 14.3238 16.9826 15.8212V22.2479H15.8288V10.2711H15.8262Z" fill="white"/>
<path d="M34.3023 16.2879C34.3023 19.8397 31.6206 22.5707 28.1331 22.5707C24.6456 22.5707 21.9639 19.8397 21.9639 16.2879C21.9639 12.7362 24.6456 10.0051 28.1331 10.0051C31.6232 10.0078 34.3023 12.7362 34.3023 16.2879ZM33.0936 16.2879C33.0936 13.381 30.9613 11.1215 28.1357 11.1215C25.3101 11.1215 23.1778 13.381 23.1778 16.2879C23.1778 19.1949 25.3101 21.4543 28.1357 21.4543C30.9587 21.457 33.0936 19.1949 33.0936 16.2879Z" fill="white"/>
<path d="M37.1279 10.2713L41.1936 20.1644L45.2594 9.53589L49.3251 20.1644L53.5059 10.2713H54.7748L49.3277 22.9834L45.262 12.3549L41.1963 22.9834L35.8643 10.2713H37.1279Z" fill="white"/>
<path d="M58.2309 0.847168V22.2481H57.0771V0.847168H58.2309Z" fill="white"/>
<path d="M61.9199 6.27729C61.9199 5.63249 62.3804 5.19019 62.9586 5.19019C63.5342 5.19019 63.9972 5.62982 63.9972 6.27729C63.9972 6.92475 63.5368 7.36439 62.9586 7.36439C62.3804 7.36439 61.9199 6.92475 61.9199 6.27729ZM63.5342 10.2713V22.2481H62.3804V10.2713H63.5342Z" fill="white"/>
<path d="M67.6836 10.2711H68.8374V12.1496C69.3842 11.1504 70.4516 10.0073 72.44 10.0073C74.5435 10.0073 75.4383 11.2703 75.6973 11.6806C76.2153 12.5306 76.2729 13.647 76.2729 14.7048V22.2479H75.1191V14.7021C75.1191 13.8788 75.0903 12.9702 74.6586 12.2961C74.3996 11.8565 73.7638 11.1211 72.3537 11.1211C70.7394 11.1211 69.9022 12.003 69.4705 12.7944C68.9525 13.7349 68.8374 14.8487 68.8374 16.0237V22.2479H67.6836V10.2711Z" fill="white"/>
<path d="M81.5786 0.847168V15.4085L86.4214 10.2714H87.9205L82.9626 15.4671L89.5347 22.2481H87.978L82.183 16.317L81.5786 16.9325V22.2481H80.4248V0.847168H81.5786Z" fill="white"/>
<path d="M115.51 0.162508V1.78783H115.397V0.162508H114.958V0.0585938H115.949V0.162508H115.51Z" fill="white"/>
<path d="M116.143 1.78785L116.336 0L117.071 1.59868L117.807 0L118 1.78785H117.888L117.739 0.399669C117.739 0.399669 117.074 1.8518 117.071 1.8518L116.404 0.399669L116.255 1.78785H116.143Z" fill="white"/>
<path d="M111.818 0.255776C111.737 0.263769 111.679 0.271763 111.611 0.282421C111.546 0.290414 111.486 0.301072 111.423 0.309065C111.297 0.327717 111.177 0.349032 111.054 0.370348C110.931 0.391664 110.811 0.412979 110.691 0.43696C110.57 0.46094 110.45 0.482255 110.329 0.5089C110.091 0.559525 109.851 0.61015 109.615 0.668768L109.259 0.75403C109.142 0.78334 109.024 0.817978 108.906 0.847287C108.671 0.911234 108.438 0.972516 108.205 1.04446C107.972 1.11373 107.739 1.18034 107.509 1.25761L106.818 1.48409L106.136 1.72656C106.02 1.76653 105.908 1.80916 105.795 1.85445L105.458 1.98768C105.233 2.07827 105.008 2.16087 104.786 2.25945L104.121 2.54455C103.899 2.6378 103.681 2.74705 103.462 2.84563L103.135 3.00017L102.972 3.07744L102.81 3.16004L102.159 3.4931C102.052 3.54905 101.939 3.60234 101.837 3.66096L101.528 3.83415L100.908 4.18053L100.832 4.22316L100.783 4.2498L100.743 4.27378L100.584 4.37237L100.267 4.56687C100.163 4.63349 100.061 4.70543 99.9585 4.7747C99.8564 4.84664 99.7518 4.91325 99.6524 4.98786C99.4535 5.13973 99.2521 5.28095 99.0637 5.44615L98.7785 5.68595L98.5038 5.93907L98.3678 6.0643L98.237 6.19753L97.9753 6.46397C97.8105 6.65048 97.6378 6.829 97.4835 7.02351C97.1643 7.40453 96.8791 7.81219 96.6175 8.23051C96.484 8.43834 96.3637 8.65416 96.246 8.86998L96.0785 9.20037C96.0236 9.30962 95.9739 9.42419 95.9215 9.53343C95.7201 9.98106 95.5474 10.442 95.4088 10.911C95.2675 11.3799 95.1602 11.8542 95.0843 12.3338C95.0111 12.8134 94.9614 13.2957 94.9771 13.7779C95.0477 13.3036 95.1681 12.84 95.3093 12.3871C95.4532 11.9341 95.6285 11.4971 95.8221 11.0682C96.0183 10.6418 96.2381 10.2315 96.4788 9.83452C96.7195 9.43751 96.9864 9.06182 97.2742 8.70212C97.5593 8.34508 97.8654 8.00403 98.1925 7.68962C98.3495 7.52709 98.5248 7.38055 98.6922 7.22867L98.9538 7.01285L99.0846 6.90627L99.2207 6.80502L99.4902 6.60252L99.7701 6.41335C99.9532 6.28279 100.149 6.17088 100.338 6.05098C100.432 5.9897 100.534 5.94174 100.631 5.88578C100.73 5.83249 100.827 5.77654 100.927 5.72325L101.227 5.57404L101.379 5.49944L101.416 5.48079L101.421 5.47812C101.431 5.47279 101.411 5.48345 101.416 5.48079L101.426 5.47546L101.447 5.46746L101.528 5.43016L102.172 5.13707L102.494 4.99052C102.601 4.94256 102.706 4.9026 102.813 4.8573L103.446 4.59618L103.606 4.53224L103.768 4.47095L104.092 4.34839C104.309 4.26846 104.521 4.18053 104.738 4.10592L105.39 3.87944C105.607 3.80217 105.827 3.73556 106.047 3.66629C106.266 3.59968 106.484 3.52507 106.703 3.46379L107.363 3.27195L108.027 3.09609C108.247 3.03481 108.472 2.98685 108.694 2.93356C108.917 2.87761 109.139 2.83231 109.361 2.78701C109.584 2.73905 109.806 2.69376 110.031 2.65379C110.047 2.65113 110.065 2.64846 110.081 2.6458C109.981 2.93356 109.893 3.22932 109.83 3.53839C109.809 3.62366 109.793 3.71425 109.78 3.80484L109.759 3.93806C109.756 3.96204 109.751 3.97803 109.749 4.01L109.741 4.06596L109.683 4.51891C109.613 5.10776 109.539 5.68328 109.461 6.25614C109.38 6.829 109.288 7.39653 109.181 7.95607C109.076 8.51561 108.951 9.06715 108.807 9.60004C108.666 10.1329 108.501 10.6525 108.302 11.1241C108.25 11.2387 108.202 11.3586 108.145 11.4652C108.116 11.5185 108.093 11.5744 108.064 11.6277L107.977 11.7796C107.949 11.8329 107.917 11.8755 107.888 11.9208C107.857 11.9661 107.831 12.0167 107.8 12.054L107.708 12.1739C107.677 12.2059 107.648 12.2379 107.616 12.2725L107.595 12.2965C107.588 12.3045 107.58 12.3098 107.575 12.3151L107.533 12.3524C107.52 12.3658 107.504 12.3791 107.491 12.3924C107.478 12.4004 107.465 12.4084 107.452 12.419C107.438 12.427 107.425 12.4377 107.415 12.4484C107.402 12.4617 107.391 12.459 107.381 12.467C107.37 12.4723 107.36 12.4777 107.35 12.4857L107.342 12.491L107.339 12.4936L107.336 12.4963C107.355 12.4883 107.31 12.5096 107.313 12.507L107.263 12.531L106.473 12.9146L106.078 13.1065L105.68 13.309L104.885 13.714L104.092 14.119L103.313 14.5293L101.758 15.3553C101.243 15.6324 100.722 15.9068 100.21 16.1866L98.666 17.0286C98.1532 17.311 97.6378 17.5881 97.125 17.8759L95.9582 18.5287C95.9739 18.4727 95.9869 18.4167 96.0026 18.3608L96.1675 17.7826C96.225 17.5908 96.2826 17.3989 96.3428 17.2071C96.4056 17.0179 96.4657 16.8261 96.5285 16.6369C96.5939 16.4477 96.6593 16.2585 96.7274 16.0694L96.9367 15.5072L97.1564 14.9476C97.3082 14.5773 97.4652 14.2096 97.6326 13.8445C97.7137 13.6607 97.8 13.4822 97.889 13.3036C97.9779 13.1251 98.0617 12.9439 98.1585 12.7681C98.2527 12.5922 98.3416 12.4111 98.4384 12.2379L98.7341 11.7156C98.8361 11.5424 98.9434 11.3746 99.0454 11.204C99.1474 11.0309 99.2599 10.8683 99.3698 10.7005C99.5844 10.3621 99.8251 10.0477 100.061 9.72261L100.435 9.25633L100.529 9.13909L100.628 9.02718L100.824 8.8007L101.021 8.57423C101.089 8.50229 101.159 8.43034 101.227 8.3584L101.437 8.14525C101.507 8.07331 101.573 7.9987 101.649 7.93209L102.088 7.52443C102.159 7.45515 102.24 7.39387 102.316 7.32992L102.549 7.14074L102.781 6.9489L103.025 6.77305L103.268 6.5972C103.349 6.53858 103.43 6.47463 103.517 6.42401L104.027 6.09894C104.069 6.0723 104.111 6.04299 104.155 6.01901L104.288 5.94707L104.555 5.80319L104.822 5.6593C104.911 5.61134 105.005 5.57404 105.097 5.53141L105.652 5.27562L105.058 5.43016C104.958 5.45947 104.859 5.48079 104.762 5.51542L104.472 5.61667L104.181 5.71792L104.035 5.76855C103.985 5.78453 103.94 5.80851 103.893 5.82717C103.705 5.90976 103.514 5.9897 103.323 6.07496C103.226 6.11493 103.137 6.16822 103.046 6.21351L102.771 6.36006L102.494 6.5066L102.227 6.6718L101.96 6.837C101.871 6.89295 101.779 6.94624 101.698 7.00752L101.186 7.37255C101.099 7.43117 101.018 7.50045 100.937 7.56439L100.691 7.76423C100.61 7.83084 100.526 7.89479 100.448 7.96406L100.212 8.17456L99.9768 8.38771L99.8591 8.49429L99.7466 8.6062L99.3018 9.05649C99.0192 9.36824 98.7288 9.67731 98.4646 10.0077C98.1899 10.3301 97.9413 10.6738 97.6875 11.0122L97.3239 11.5344C97.2035 11.7076 97.0936 11.8888 96.9759 12.0673C96.8582 12.2432 96.7509 12.427 96.6436 12.6082C96.5338 12.7894 96.4265 12.9733 96.3245 13.1598C96.1152 13.5275 95.9215 13.9058 95.7279 14.2842L95.4506 14.857L95.189 15.4379C95.1026 15.6324 95.0215 15.8269 94.9378 16.0241C94.8567 16.2186 94.7782 16.4184 94.6997 16.6156C94.6212 16.8127 94.548 17.0126 94.4721 17.2097C94.3989 17.4096 94.3282 17.6094 94.2602 17.8119C94.1241 18.2142 93.9933 18.6219 93.8756 19.0322C93.8154 19.2374 93.7579 19.4426 93.7029 19.6531C93.6741 19.757 93.648 19.8636 93.6218 19.9675C93.5957 20.0767 93.5721 20.1753 93.5433 20.3005L93.1143 22.2935L94.9587 21.369L98.0957 19.7996L101.225 18.2196C101.748 17.9585 102.266 17.6894 102.787 17.4256L104.349 16.6342L105.9 15.8509L106.669 15.4645L107.054 15.27L107.449 15.0808L108.242 14.7025L108.291 14.6785C108.286 14.6812 108.263 14.6918 108.281 14.6838L108.291 14.6785L108.312 14.6678L108.352 14.6465L108.514 14.5613C108.566 14.532 108.624 14.5027 108.668 14.4707L108.809 14.3721L108.948 14.2682C108.99 14.2335 109.029 14.1962 109.071 14.1589L109.191 14.047C109.212 14.0284 109.231 14.0097 109.249 13.9911L109.301 13.9351C109.369 13.8605 109.437 13.7832 109.505 13.706L109.681 13.4715C109.741 13.3942 109.788 13.3143 109.84 13.237C109.89 13.1598 109.942 13.0798 109.984 13.0026L110.115 12.7681C110.157 12.6908 110.193 12.6109 110.233 12.5336C110.314 12.3764 110.374 12.2219 110.445 12.0673C110.701 11.4465 110.889 10.831 111.049 10.2182C111.209 9.60537 111.329 8.99521 111.434 8.38771C111.538 7.78022 111.625 7.17272 111.698 6.56789C111.774 5.96572 111.829 5.35822 111.881 4.76671L111.92 4.33507L111.925 4.27911L111.931 4.23915L111.941 4.15388C111.949 4.09793 111.954 4.03931 111.967 3.98069C112.007 3.74889 112.069 3.51175 112.148 3.27461C112.226 3.03747 112.32 2.80034 112.428 2.56853C112.48 2.45129 112.538 2.33672 112.595 2.22481C112.624 2.16886 112.655 2.11291 112.684 2.05962L112.729 1.98235L112.765 1.92106L113.877 0.0292969L111.818 0.255776Z" fill="white"/>
</g>
<defs>
<clipPath id="clip0">
<rect width="118" height="29" fill="white"/>
</clipPath>
</defs>
</svg>
